<?xml version="1.0" encoding="UTF-8" standalone="no"?>
<svg
   xmlns:dc="http://purl.org/dc/elements/1.1/"
   xmlns:cc="http://creativecommons.org/ns#"
   xmlns:rdf="http://www.w3.org/1999/02/22-rdf-syntax-ns#"
   xmlns:svg="http://www.w3.org/2000/svg"
   xmlns="http://www.w3.org/2000/svg"
   xmlns:sodipodi="http://sodipodi.sourceforge.net/DTD/sodipodi-0.dtd"
   xmlns:inkscape="http://www.inkscape.org/namespaces/inkscape"
   version="1.1"
   id="svg893"
   width="425"
   height="251"
   viewBox="0 0 425 251"
   sodipodi:docname="Batman_Logo_Low.svg"
   inkscape:version="1.0.2 (1.0.2+r75+1)">
  <metadata
     id="metadata899">
    <rdf:RDF>
      <cc:Work
         rdf:about="">
        <dc:format>image/svg+xml</dc:format>
        <dc:type
           rdf:resource="http://purl.org/dc/dcmitype/StillImage" />
        <dc:title />
      </cc:Work>
    </rdf:RDF>
  </metadata>
  <defs
     id="defs897" />
  <sodipodi:namedview
     pagecolor="#ffffff"
     bordercolor="#666666"
     borderopacity="1"
     objecttolerance="10"
     gridtolerance="10"
     guidetolerance="10"
     inkscape:pageopacity="0"
     inkscape:pageshadow="2"
     inkscape:window-width="1869"
     inkscape:window-height="1025"
     id="namedview895"
     showgrid="false"
     inkscape:zoom="3.0979595"
     inkscape:cx="210.97694"
     inkscape:cy="164.78114"
     inkscape:window-x="51"
     inkscape:window-y="27"
     inkscape:window-maximized="1"
     inkscape:current-layer="layer1"
     inkscape:document-rotation="0" />
  <g
     inkscape:groupmode="layer"
     id="layer1"
     inkscape:label="root">
    <path
       style="fill:none;stroke:#000000;stroke-width:1.00157;stroke-linecap:butt;stroke-linejoin:miter;stroke-miterlimit:4;stroke-dasharray:3.00472, 1.00157;stroke-dashoffset:0;stroke-opacity:1"
       d="M 200.97422,52.22972 188.43174,27.671826 185.24182,60.606002 177.9282,95.831056 148.20095,101.73391 119.36817,84.890566 112.17448,67.382432 126.2229,36.4183 94.01113,48.31736 44.047688,74.829577 24.083661,93.218276 9.1359447,122.49277 l 9.7353483,49.79411 37.154385,34.64467 35.132152,15.6339 -14.12024,-26.74627 2.08229,-11.78012 23.57357,-12.49757 16.78648,5.75467 20.75014,17.17995 8.2125,-14.09003 29.44439,-0.69166 15.89018,16.71869 19.10724,32.97764 5.43355,-10.57917 22.5979,-33.34891 32.5543,-8.71572 12.27272,17.53939 13.24825,-11.92473 36.68858,-8.65126 12.64061,25.82123 -13.32854,22.7846 12.62188,-4.42461 39.24356,-23.22376 19.14471,-20.97436 11.8671,-37.93786 -20.12813,-47.167354 -39.06392,-28.453961 -59.03314,-24.202598 14.11841,32.202001 -9.37608,20.393548 -16.37229,11.653284 -39.23149,-4.501894 -6.92811,-30.352414 -3.69343,-37.778846 -13.44076,25.151674"
       id="path906-3"
       sodipodi:nodetypes="cccccccccccccccccccccccccccccccccccccccccccccc" />
  </g>
</svg>
