<?xml version="1.0" encoding="UTF-8" standalone="no"?>
<svg
   xmlns:dc="http://purl.org/dc/elements/1.1/"
   xmlns:cc="http://creativecommons.org/ns#"
   xmlns:rdf="http://www.w3.org/1999/02/22-rdf-syntax-ns#"
   xmlns:svg="http://www.w3.org/2000/svg"
   xmlns="http://www.w3.org/2000/svg"
   xmlns:sodipodi="http://sodipodi.sourceforge.net/DTD/sodipodi-0.dtd"
   xmlns:inkscape="http://www.inkscape.org/namespaces/inkscape"
   version="1.1"
   id="svg44"
   width="1365.3333"
   height="1365.3333"
   viewBox="0 0 1365.3333 1365.3333"
   sodipodi:docname="Crocodile_Clip.svg"
   inkscape:version="1.0.2 (1.0.2+r75+1)">
  <sodipodi:namedview
     id="namedview7"
     pagecolor="#ffffff"
     bordercolor="#666666"
     borderopacity="1.0"
     inkscape:pageshadow="2"
     inkscape:pageopacity="0.0"
     inkscape:pagecheckerboard="0"
     showgrid="false"
     inkscape:zoom="0.85142843"
     inkscape:cx="642.81606"
     inkscape:cy="567.65927"
     inkscape:window-width="1869"
     inkscape:window-height="1025"
     inkscape:window-x="51"
     inkscape:window-y="27"
     inkscape:window-maximized="1"
     inkscape:current-layer="layer2"
     inkscape:document-rotation="0" />
  <metadata
     id="metadata50">
    <rdf:RDF>
      <cc:Work
         rdf:about="">
        <dc:format>image/svg+xml</dc:format>
        <dc:type
           rdf:resource="http://purl.org/dc/dcmitype/StillImage" />
        <dc:title></dc:title>
      </cc:Work>
    </rdf:RDF>
  </metadata>
  <defs
     id="defs48" />
  <g
     id="layer2">
    <path
       id="path947"
       style="fill:none;stroke:#000000;stroke-width:1;stroke-linecap:butt;stroke-linejoin:miter;stroke-miterlimit:4;stroke-dasharray:12, 12;stroke-dashoffset:0;stroke-opacity:1"
       d="m 731.50887,969.53026 -0.27194,5.05355 -0.27194,5.05355 -23.1186,8.78085 -23.11861,8.78085 -0.59525,7.38004 -0.59525,7.3801 18.04437,13.6808 18.04438,13.6808 v 5.2863 5.2862 l -22.36795,9.844 -22.36794,9.8439 -0.29805,7.8914 -0.29804,7.8914 19.18178,13.7865 19.18179,13.7866 -0.14791,4.9836 -0.1479,4.9836 -22.02538,11.3287 -22.02537,11.3287 0.13638,7.1407 0.13638,7.1407 19.88468,12.9899 19.88469,12.9899 -0.15227,5.0167 -0.15226,5.0167 -20.76161,11.5206 -20.7616,11.5205 0.13657,8.1124 0.13658,8.1123 19.49167,12.3052 19.49168,12.3052 23.74384,-1.1579 23.74384,-1.1579 17.11569,-17.7943 17.11569,-17.7944 3.2432,-36.8743 3.2432,-36.8744 3.2432,-36.8744 3.2432,-36.8744 7.08673,-42.3687 7.08674,-42.3686 7.08674,-42.36865 7.08674,-42.36864 11.68247,-40.4048 11.68247,-40.40479 11.68247,-40.4048 11.68247,-40.40479 8.71262,-22.6538 8.71261,-22.6538 8.71262,-22.6538 8.71262,-22.6538 7.92936,-19.13092 7.92937,-19.13091 9.4039,-4.30067 9.40391,-4.30066 7.10074,-22.25784 7.10074,-22.25784 -4.83256,-9.27055 -4.83255,-9.27054 1.24261,-25.81693 1.24262,-25.81693 -2.80914,-28.11777 -2.80913,-28.11776 6.22978,-3.18227 6.22978,-3.18226 3.11438,-15.91253 3.11439,-15.91253 -10.19578,-14.79838 -10.19577,-14.79837 4.13335,-13.11453 4.13335,-13.11453 16.83168,-6.20286 16.83169,-6.20286 6.75843,-14.44118 6.75844,-14.44118 -6.14481,-15.64011 -6.14481,-15.64011 7.31816,-12.79699 7.31816,-12.797 17.9621,-1.64996 17.9622,-1.64997 9.7553,-11.59919 9.7554,-11.5992 -1.8859,-18.55442 -1.8859,-18.55443 13.1338,-12.57256 13.1338,-12.57257 0.7717,-9.24523 0.7717,-9.24524 -10.5064,-11.95743 -10.5064,-11.95743 -8.9123,0.26569 -8.9122,0.26568 -21.3829,24.64571 -21.383,24.6457 -21.38291,24.6457 -21.3829,24.6457 -14.19954,27.28405 -14.19955,27.28404 -14.19955,27.28405 -14.19954,27.28405 -8.12646,7.07424 -8.12646,7.07425 -21.24347,-11.87865 -21.24346,-11.87865 -26.17114,-13.63748 -26.17113,-13.63748 -20.31764,17.06819 -20.31763,17.06819 -9.33887,26.34588 -9.33886,26.34589 25.99194,31.47119 25.99195,31.47119 9.07225,22.87979 9.07226,22.87978 -8.95858,26.62897 -8.95858,26.62897 -8.95858,26.62897 -8.95858,26.62897 -21.30387,8.70722 -21.30388,8.70721 -21.30387,8.70722 -21.30388,8.70721 -19.61413,-5.83548 -19.61413,-5.83549 -19.61413,-5.83548 -19.61413,-5.83548 -12.3485,-27.41098 -12.34851,-27.41099 -12.3485,-27.41098 -12.34851,-27.41098 13.11743,-23.34193 13.11742,-23.34193 13.11743,-23.34193 13.11742,-23.34193 7.29447,-27.12173 7.29447,-27.12172 -13.07057,-21.8107 -13.07057,-21.8107 -14.95686,-6.74063 -14.95686,-6.74063 -20.34323,9.43597 -20.34322,9.43598 -23.2402,16.62107 -23.2402,16.62108 -12.48504,-9.81977 -12.48504,-9.81976 -15.57612,-28.77629 -15.57612,-28.7763 -15.57611,-28.77629 -15.57612,-28.77629 -19.79543,-21.9783 -19.79543,-21.9783 -19.79542,-21.9783 -19.79543,-21.9783 -8.60161,0.17868 -8.6016,0.17868 v 0 0 l -10.592,13.27554 -10.35963,14.6005 m 20.95163,-27.87604 -20.95163,27.87604 0.45457,7.23821 0.45458,7.23821 13.46554,12.36455 13.46555,12.36455 -1.29495,17.70004 -1.29494,17.70004 9.88986,13.20644 9.88986,13.20645 17.38078,1.39092 17.38079,1.39092 8.0334,12.96629 8.0334,12.96629 -6.55458,15.30691 -6.55457,15.30691 6.51283,14.91316 6.51284,14.91317 16.70608,5.34089 16.70609,5.34089 4.22172,14.20375 4.22172,14.20375 -9.67829,14.11921 -9.67828,14.11921 2.49435,15.87119 2.49435,15.8712 5.91091,3.5417 5.91092,3.5417 -2.96912,27.69912 -2.96911,27.69912 2.10249,25.24933 2.1025,25.24934 -5.19038,8.79929 -5.19037,8.7993 6.89458,22.90461 6.89458,22.90462 9.94096,4.94612 9.94097,4.94612 11.2511,33.90523 12.58713,37.93138 11.68263,35.20564 12.1556,36.63096 11.91912,35.9183 11.91912,35.91831 11.91911,35.9183 11.91912,35.9183 4.73282,31.26238 4.73281,31.26238 4.73282,31.26238 4.73281,31.26238 4.73282,31.2624 4.73281,31.2624 4.73282,31.2623 4.73281,31.2624 3.07397,35.6021 3.07397,35.602 19.72005,18.562 19.72006,18.562 14.22905,0.043 14.22906,0.043 5.53507,-7.5771 5.53507,-7.5772 -0.34966,-13.3825 -0.34966,-13.3826 20.51399,-11.736 20.51399,-11.736 -0.64859,-9.395 -0.64858,-9.3951 -20.78166,-9.1971 -20.78165,-9.1972 -0.63698,-6.1079 -0.63697,-6.1079 19.72951,-11.644 19.72951,-11.644 -0.37002,-8.9429 -0.37001,-8.943 -21.50144,-10.1895 -21.50143,-10.1896 -0.38924,-5.3266 -0.38923,-5.3266 18.46715,-13.4816 18.46715,-13.4817 -0.92839,-8.6478 -0.92838,-8.6479 -21.89845,-8.9244 -21.89845,-8.9244 -1.05848,-4.8891 -1.05848,-4.8891 17.91791,-14.00047 17.91792,-14.00047 -0.61854,-8.85755 -0.61853,-8.85755 -22.96642,-7.80095 -22.96641,-7.80095 -0.73276,-4.4911 -0.73275,-4.4911 18.25587,-16.50336 18.25587,-16.50336 -1.39129,-8.26999 -1.39129,-8.27 -23.36087,-6.13336 -23.36087,-6.13337 -10.25415,-36.2408 -10.25416,-36.24081 -10.25415,-36.2408 -10.25416,-36.24081 -8.86307,-24.0075 -8.86307,-24.0075 -8.86306,-24.0075 -8.86307,-24.00751 -10.07634,-21.76819 -10.07634,-21.7682 2.40781,-6.12781 2.40782,-6.12782 21.6828,27.37414 21.6828,27.37414 31.20904,12.42455 31.20904,12.42455 31.20905,12.42455 31.20904,12.42455 34.65089,-16.42112 34.65088,-16.42112 34.65089,-16.42112 34.65089,-16.42113 11.11877,-17.00625 11.11878,-17.00626 3.63945,-2.37482 3.63946,-2.37482 2.68815,2.85188 2.68815,2.85187 -10.53239,25.92819 -10.53239,25.92819 -14.53861,41.1945 -14.53862,41.1945 -14.53861,41.1945 -14.53862,41.19449 -6.77725,27.84799 -6.77726,27.84798 -6.77725,27.84798 -6.77726,27.84798 -23.57499,8.20305 -23.57498,8.20305 -0.367,7.51885 -0.367,7.51885 17.71251,15.51445 17.71252,15.51445"
       sodipodi:nodetypes="ccccccccccccccccccccccccccccccccccccccccccccccccccccccccccccccccccccccccccccccccccccccccccccccccccccccccccccccccccccccccccccccccccccccccccccccccccccccccccccccccccccccccccccccccccccccccccccccccccccccccccccccccccccccccccccccccccccccccccccccccccccccccccccccccccccccccccccccccccccccccccccccccccccccccccccccccccccc" />
  </g>
</svg>
