<?xml version="1.0" encoding="UTF-8" standalone="no"?>
<svg
   xmlns:dc="http://purl.org/dc/elements/1.1/"
   xmlns:cc="http://creativecommons.org/ns#"
   xmlns:rdf="http://www.w3.org/1999/02/22-rdf-syntax-ns#"
   xmlns:svg="http://www.w3.org/2000/svg"
   xmlns="http://www.w3.org/2000/svg"
   xmlns:sodipodi="http://sodipodi.sourceforge.net/DTD/sodipodi-0.dtd"
   xmlns:inkscape="http://www.inkscape.org/namespaces/inkscape"
   version="1.1"
   id="svg894"
   width="512"
   height="512"
   viewBox="0 0 512 512"
   sodipodi:docname="Circle_With_Cross_Dashed.svg"
   inkscape:version="1.0.2 (1.0.2+r75+1)">
  <metadata
     id="metadata900">
    <rdf:RDF>
      <cc:Work
         rdf:about="">
        <dc:format>image/svg+xml</dc:format>
        <dc:type
           rdf:resource="http://purl.org/dc/dcmitype/StillImage" />
        <dc:title></dc:title>
      </cc:Work>
    </rdf:RDF>
  </metadata>
  <defs
     id="defs898" />
  <sodipodi:namedview
     pagecolor="#ffffff"
     bordercolor="#666666"
     borderopacity="1"
     objecttolerance="10"
     gridtolerance="10"
     guidetolerance="10"
     inkscape:pageopacity="0"
     inkscape:pageshadow="2"
     inkscape:window-width="1869"
     inkscape:window-height="1025"
     id="namedview896"
     showgrid="false"
     inkscape:zoom="4.6845824"
     inkscape:cx="269.02889"
     inkscape:cy="199.09855"
     inkscape:window-x="51"
     inkscape:window-y="27"
     inkscape:window-maximized="1"
     inkscape:current-layer="layer2"
     inkscape:document-rotation="0" />
  <g
     inkscape:groupmode="layer"
     id="layer2"
     inkscape:label="root 1">
    <path
       style="fill:none;stroke:#000000;stroke-width:1;stroke-linecap:butt;stroke-linejoin:miter;stroke-miterlimit:4;stroke-dasharray:12, 12;stroke-dashoffset:0;stroke-opacity:1"
       d="m 252.77696,6.03947 -31.96925,2.23095 -30.04333,5.92711 -26.76963,9.01275 -25.99362,11.930462 -18.9742,11.388325 M 98.38998,61.759549 81.253021,77.254988 66.11333,92.970799 51.934186,111.38511 38.015829,133.20987 26.774692,154.88592 17.80762,178.3848 l -6.52607,23.75465 -3.82158,22.58088 -1.96981,25.05654 0.62104,24.25109 3.23092,24.95932 4.89133,21.93234 7.00435,21.62578 8.927791,21.83395 10.76519,19.78661 11.720512,17.91421 12.250307,15.30935 11.863269,13.44991 14.011286,13.08152 16.820795,14.04894 17.97248,11.58735 16.98972,9.32541 19.50632,9.07715 19.85812,7.29631 23.13039,5.46928 25.79392,3.8623 22.35044,1.37636 30.67779,-1.24957 25.10514,-4.08915 30.38698,-8.57843 20.11647,-8.29665 24.039,-12.50028 17.84582,-11.83403 18.27623,-14.33 18.43435,-17.37281 15.33345,-18.11746 11.65784,-16.02134 10.3171,-17.32356 9.1536,-18.24175 8.33581,-21.72505 6.28057,-20.64779 4.68538,-24.53144 2.02357,-28.16789 -0.43222,-25.40871 -2.95437,-24.89672 -4.7192,-22.21336 -7.43405,-21.84188 -10.00757,-23.46857 -13.17306,-23.2083 M 450.41855,98.1513 430.39437,76.632214 415.23722,62.899889 393.2994,46.951619 369.66284,33.144776 344.86849,21.95029 315.54415,12.92826 291.56527,8.46183 270.51648,6.05676"
       id="path907" />
    <path
       style="fill:none;stroke:#000000;stroke-width:1;stroke-linecap:butt;stroke-linejoin:miter;stroke-miterlimit:4;stroke-dasharray:12, 12;stroke-dashoffset:0;stroke-opacity:1"
       d="m 237.99652,32.504961 37.82375,0.256316 20.70549,2.379689 22.7836,5.524598 19.99478,6.977245 20.98093,9.299869 18.36297,11.369804 17.42029,12.977769 15.3469,13.561579 13.33074,14.51477 11.88156,14.73851 9.26985,13.02052 9.51157,16.60188 8.52349,18.13348 6.9055,19.49196 5.51684,21.34442 2.99731,26.4593 0.13631,28.83912 -1.97385,22.70678 -5.10173,23.50393 -7.48672,23.24628 -10.05384,21.7538 -11.24703,19.43366 -12.22929,15.94794 -14.01564,15.55775 -18.01754,17.16124 -15.87576,12.46884 -20.81736,13.09925 -19.7114,9.61939 -20.36318,7.4119 -24.47803,6.02312 -22.85322,2.62552 -26.12345,0.19399 -22.7301,-1.33257 -24.47954,-4.09319 -24.29193,-6.90897 M 154.67517,455.87393 135.23299,444.3919 118.34422,432.55434 102.89355,419.62328 88.36246,404.11219 77.008761,390.44205 67.541365,376.48473 55.250326,355.96159 46.647308,337.56396 39.54241,315.51185 l -3.95107,-18.89612 -2.05957,-14.66716 -0.914123,-26.35063 1.182152,-27.70945 5.160354,-30.31977 8.944461,-26.82828 13.45616,-27.52815 14.669227,-21.23728 15.634042,-18.67878 19.936997,-19.25444 16.36272,-12.577812 19.49959,-12.194516 20.27504,-10.195086 20.84404,-7.502755 17.73505,-4.415689 15.57185,-2.940282"
       id="path909" />
    <path
       style="fill:none;stroke:#000000;stroke-width:1px;stroke-linecap:butt;stroke-linejoin:miter;stroke-opacity:1"
       d="m 209.84318,121.71165 0.10832,21.75436 -0.081,23.25543 0.079,23.71783 -0.0835,20.5272 -27.20262,0.2291 -24.43142,-0.19638 -25.22085,-0.47092 -10.88889,-0.0318 0.13679,11.82111 0.30347,23.59415 -0.15671,24.32178 -0.0196,23.34793 0.035,10.10848 14.35428,-0.0769 23.60681,-0.4887 23.94221,0.36034 25.33056,0.0234 0.075,23.39106 -0.0466,24.41182 0.0743,23.52536 0.29476,16.56648 7.99308,-0.1046 22.58706,-0.0379 25.1136,0.65117 23.4693,-0.35752 13.94764,0.018 0.19752,-9.96574 -0.22676,-13.39922 -0.20497,-10.45318 0.38706,-13.63648 -0.37786,-10.29196 -0.2765,-13.1501 0.43331,-16.8983 18.62772,0.39004 23.69501,-0.49174 23.7048,-0.002 22.8575,0.21461 0.0564,-25.24708 -0.34118,-24.21744 -0.20872,-24.3246 0.63771,-19.41776 -5.48393,-0.46009 -23.37927,0.2138 -22.55714,0.44541 -25.78473,0.0448 -12.08339,0.0522 -0.59285,-11.80536 0.35187,-23.93762 0.0861,-23.24992 0.37562,-13.35005 0.22985,-11.23619 -0.23707,-5.51782 -17.61974,-0.33393 -25.03657,0.2222 -22.96456,-0.24898 -14.89435,-0.0628"
       id="path1701" />
  </g>
</svg>
