<?xml version="1.0" encoding="UTF-8" standalone="no"?>
<svg
   xmlns:dc="http://purl.org/dc/elements/1.1/"
   xmlns:cc="http://creativecommons.org/ns#"
   xmlns:rdf="http://www.w3.org/1999/02/22-rdf-syntax-ns#"
   xmlns:svg="http://www.w3.org/2000/svg"
   xmlns="http://www.w3.org/2000/svg"
   xmlns:sodipodi="http://sodipodi.sourceforge.net/DTD/sodipodi-0.dtd"
   xmlns:inkscape="http://www.inkscape.org/namespaces/inkscape"
   version="1.1"
   id="svg894"
   width="512"
   height="512"
   viewBox="0 0 512 512"
   sodipodi:docname="Pharmacy_Cross_Low.svg"
   inkscape:version="1.0.2 (1.0.2+r75+1)">
  <metadata
     id="metadata900">
    <rdf:RDF>
      <cc:Work
         rdf:about="">
        <dc:format>image/svg+xml</dc:format>
        <dc:type
           rdf:resource="http://purl.org/dc/dcmitype/StillImage" />
        <dc:title></dc:title>
      </cc:Work>
    </rdf:RDF>
  </metadata>
  <defs
     id="defs898" />
  <sodipodi:namedview
     pagecolor="#ffffff"
     bordercolor="#666666"
     borderopacity="1"
     objecttolerance="10"
     gridtolerance="10"
     guidetolerance="10"
     inkscape:pageopacity="0"
     inkscape:pageshadow="2"
     inkscape:window-width="1869"
     inkscape:window-height="1025"
     id="namedview896"
     showgrid="false"
     inkscape:zoom="3.3125"
     inkscape:cx="186.65324"
     inkscape:cy="158.21466"
     inkscape:window-x="51"
     inkscape:window-y="27"
     inkscape:window-maximized="1"
     inkscape:current-layer="layer2"
     inkscape:document-rotation="0" />
  <g
     inkscape:groupmode="layer"
     id="layer2"
     inkscape:label="root 1">
    <path
       style="fill:none;stroke:#000000;stroke-width:1px;stroke-linecap:butt;stroke-linejoin:miter;stroke-opacity:1"
       d="m 256.26032,121.40017 -46.41714,0.31148 -0.29785,44.70507 0.32067,44.54975 -45.0657,-0.0627 -42.67808,-0.40728 0.75146,46.9166 -0.45251,46.27685 45.21809,-0.16694 42.01577,-0.0149 -0.39136,44.43834 0.78882,43.45638 45.91044,0.67069 47.20024,-0.50154 0.15285,-47.45462 -0.22105,-40.34036 47.76478,-0.29893 41.12025,0.40984 -0.657,-49.59975 0.80121,-43.60713 -47.88561,-0.004 -41.40285,0.2999 -0.13076,-49.0891 0.34428,-40.00786 z"
       id="path1818"
       sodipodi:nodetypes="ccccccccccccccccccccccccc" />
    <path
       style="fill:none;stroke:#000000;stroke-width:1px;stroke-linecap:butt;stroke-linejoin:miter;stroke-opacity:1"
       d="m 237.99652,32.504961 48.68061,1.805388 45.91799,11.211974 46.05292,22.790159 34.65886,29.311689 29.78589,36.711929 21.91772,42.5113 12.44022,46.59386 1.86004,47.90004 -8.55778,47.52488 -17.846,43.83757 -27.62928,38.29043 -34.42847,33.60344 -40.67235,25.23018 -45.30495,14.26074 -47.7666,4.56742 -47.34743,-4.2655 L 163.34345,460.94137 135.23299,444.3919 97.026073,412.9223 67.578199,376.61041 44.723034,333.50745 33.753741,285.76433 32.749926,237.89724 40.566195,190.41737 58.972693,147.03742 87.069171,108.00766 121.86704,75.2156 l 41.6896,-24.185004 36.4431,-12.484513 37.99678,-6.041122"
       id="path1820"
       sodipodi:nodetypes="ccccccccccccccccccccccccccccccc" />
    <path
       style="fill:none;stroke:#000000;stroke-width:1px;stroke-linecap:butt;stroke-linejoin:miter;stroke-opacity:1"
       d="M 193.73642,13.476627 148.32936,30.105064 109.75827,52.89947 71.586979,86.497605 42.89549,123.9817 22.064209,167.87917 9.2494242,212.95163 l -4.0526008,48.55311 5.7064606,46.5924 14.740225,46.6568 23.770839,41.74335 29.196372,36.75314 37.69195,29.82033 41.78093,23.06416 46.97038,14.59047 48.14436,5.23866 45.37982,-4.35102 46.35411,-12.22331 43.90717,-21.23046 37.61848,-29.49943 31.75652,-35.76576 25.17202,-41.49136 15.77203,-45.76653 5.58466,-46.44392 0.0152,-24.66133 -5.7731,-46.85016 L 484.04614,152.19866 460.44981,107.29957 427.34851,74.109375 388.55922,43.41281 344.86849,21.95029 299.96048,9.4001511 242.17794,6.2881228 Z"
       id="path1822"
       sodipodi:nodetypes="cccccccccccccccccccccccccccccccccc" />
  </g>
</svg>
