<?xml version="1.0" encoding="UTF-8" standalone="no"?>
<svg
   xmlns:dc="http://purl.org/dc/elements/1.1/"
   xmlns:cc="http://creativecommons.org/ns#"
   xmlns:rdf="http://www.w3.org/1999/02/22-rdf-syntax-ns#"
   xmlns:svg="http://www.w3.org/2000/svg"
   xmlns="http://www.w3.org/2000/svg"
   xmlns:sodipodi="http://sodipodi.sourceforge.net/DTD/sodipodi-0.dtd"
   xmlns:inkscape="http://www.inkscape.org/namespaces/inkscape"
   version="1.1"
   id="svg891"
   width="1853"
   height="1432"
   viewBox="0 0 1853 1432"
   sodipodi:docname="Superman_Logo_Low.svg"
   inkscape:version="1.0.2 (1.0.2+r75+1)">
  <metadata
     id="metadata897">
    <rdf:RDF>
      <cc:Work
         rdf:about="">
        <dc:format>image/svg+xml</dc:format>
        <dc:type
           rdf:resource="http://purl.org/dc/dcmitype/StillImage" />
        <dc:title></dc:title>
      </cc:Work>
    </rdf:RDF>
  </metadata>
  <defs
     id="defs895" />
  <sodipodi:namedview
     pagecolor="#ffffff"
     bordercolor="#666666"
     borderopacity="1"
     objecttolerance="10"
     gridtolerance="10"
     guidetolerance="10"
     inkscape:pageopacity="0"
     inkscape:pageshadow="2"
     inkscape:window-width="1869"
     inkscape:window-height="1025"
     id="namedview893"
     showgrid="false"
     inkscape:zoom="1.004857"
     inkscape:cx="788.47685"
     inkscape:cy="294.8335"
     inkscape:window-x="51"
     inkscape:window-y="27"
     inkscape:window-maximized="1"
     inkscape:current-layer="g899"
     inkscape:document-rotation="0" />
  <g
     inkscape:groupmode="layer"
     inkscape:label="Image"
     id="g899">
    <path
       style="fill:none;stroke:#000000;stroke-width:1px;stroke-linecap:butt;stroke-linejoin:miter;stroke-opacity:1"
       d="M 1791.6122,374.37196 1672.3019,245.50795 1568.4253,134.94625 1477.4419,37.957715 1244.4583,35.471271 1041.6432,37.699615 838.06625,36.782256 631.15076,35.462464 396.81114,35.793407 297.15271,140.14446 178.57514,260.72475 67.429484,376.01726 242.92294,588.85017 402.00226,789.08473 567.41473,992.03534 726.6305,1194.0348 899.45995,1400.269 1059.4416,1217.4305 1226.0015,1021.24 l 174.8636,-195.11095 166.4286,-193.52444 135.6575,-157.72056 88.661,-100.51209"
       id="path3123"
       sodipodi:nodetypes="ccccccccccccccccccccccc" />
    <path
       style="fill:none;stroke:#000000;stroke-width:1px;stroke-linecap:butt;stroke-linejoin:miter;stroke-opacity:1"
       d="m 430.63376,149.68497 138.13329,0.69733 -39.92547,24.69412 -82.12164,55.36688 -68.69935,78.17891 -40.65131,94.05657 -8.39557,68.45007 12.72215,61.14197 -129.35039,-150.13208 113.16101,-117.9747 z"
       id="path3125"
       sodipodi:nodetypes="ccccccccccc" />
    <path
       style="fill:none;stroke:#000000;stroke-width:1px;stroke-linecap:butt;stroke-linejoin:miter;stroke-opacity:1"
       d="m 1135.4759,150.25781 143.633,0.63522 -30.0789,111.2787 -38.5922,-63.39558 -31.6967,-25.2265 z"
       id="path3127"
       sodipodi:nodetypes="cccccc" />
    <path
       style="fill:none;stroke:#000000;stroke-width:1px;stroke-linecap:butt;stroke-linejoin:miter;stroke-opacity:1"
       d="m 1464.1074,185.01387 88.6624,95.89775 98.7735,100.18175 -79.9787,93.72787 -73.88,88.87978 -70.7071,83.89677 -17.5143,-54.17626 -96.5354,-77.91034 -158.1337,-39.31795 -156.99585,-12.01215 -154.47828,-5.43983 -147.17237,-15.71153 -90.47767,-43.54182 -21.20456,-54.68975 35.20177,-68.98783 148.70902,-68.08208 145.44866,-14.79353 160.33498,34.47661 95.5601,108.73331 10.0563,64.79357 146.2612,0.01 134.2521,0.50389 -0.9165,-109.19847 z"
       id="path3129"
       sodipodi:nodetypes="cccccccccccccccccccccccc" />
    <path
       style="fill:none;stroke:#000000;stroke-width:1px;stroke-linecap:butt;stroke-linejoin:miter;stroke-opacity:1"
       d="m 909.6513,1019.8961 136.9097,-9.4359 82.4235,-23.76295 -117.8595,127.62615 -101.49375,109.871 -106.38982,-126.8795 -102.15113,-116.91774 94.89566,23.90444 z"
       id="path3131"
       sodipodi:nodetypes="ccccccccc" />
    <path
       style="fill:none;stroke:#000000;stroke-width:1px;stroke-linecap:butt;stroke-linejoin:miter;stroke-opacity:1"
       d="m 410.38852,644.26419 90.60298,43.10494 151.4762,22.87717 209.06975,7.1606 204.40235,8.31228 122.6082,22.6812 58.0623,38.09232 -8.2074,50.19408 -82.6251,43.30578 -149.08,27.41621 -85.8083,-2.73932 -13.54353,-45.10034 -109.27152,-52.17821 -127.1259,-13.67929 -68.2964,15.81934 -14.36091,40.68442 -91.29419,-106.60451 z"
       id="path3133"
       sodipodi:nodetypes="cccccccccccccccccc" />
  </g>
  <g
     inkscape:groupmode="layer"
     id="layer1"
     inkscape:label="root" />
</svg>
