<?xml version="1.0" encoding="UTF-8" standalone="no"?>
<svg
   xmlns:dc="http://purl.org/dc/elements/1.1/"
   xmlns:cc="http://creativecommons.org/ns#"
   xmlns:rdf="http://www.w3.org/1999/02/22-rdf-syntax-ns#"
   xmlns:svg="http://www.w3.org/2000/svg"
   xmlns="http://www.w3.org/2000/svg"
   xmlns:sodipodi="http://sodipodi.sourceforge.net/DTD/sodipodi-0.dtd"
   xmlns:inkscape="http://www.inkscape.org/namespaces/inkscape"
   version="1.1"
   id="svg891"
   width="1853"
   height="1432"
   viewBox="0 0 1853 1432"
   sodipodi:docname="Superman_Logo.svg"
   inkscape:version="1.0.2 (1.0.2+r75+1)">
  <metadata
     id="metadata897">
    <rdf:RDF>
      <cc:Work
         rdf:about="">
        <dc:format>image/svg+xml</dc:format>
        <dc:type
           rdf:resource="http://purl.org/dc/dcmitype/StillImage" />
        <dc:title></dc:title>
      </cc:Work>
    </rdf:RDF>
  </metadata>
  <defs
     id="defs895" />
  <sodipodi:namedview
     pagecolor="#ffffff"
     bordercolor="#666666"
     borderopacity="1"
     objecttolerance="10"
     gridtolerance="10"
     guidetolerance="10"
     inkscape:pageopacity="0"
     inkscape:pageshadow="2"
     inkscape:window-width="1869"
     inkscape:window-height="1025"
     id="namedview893"
     showgrid="false"
     inkscape:zoom="0.50242849"
     inkscape:cx="899.52479"
     inkscape:cy="577.63645"
     inkscape:window-x="51"
     inkscape:window-y="27"
     inkscape:window-maximized="1"
     inkscape:current-layer="g899" />
  <g
     inkscape:groupmode="layer"
     inkscape:label="Image"
     id="g899">
    <path
       style="fill:none;stroke:#000000;stroke-width:1px;stroke-linecap:butt;stroke-linejoin:miter;stroke-opacity:1"
       d="M 942.35342,37.468437 m -40.15482,-0.612503 -45.02369,-0.254532 -48.2069,-0.181643 -48.38044,0.08528 -50.48234,0.356332 -49.14206,1.118651 -61.3135,-1.427393 -56.46261,-1.19406 -53.9124,0.553555 -54.66005,-0.983778 -37.80347,0.865061 -27.09665,28.62399 -27.95048,28.623412 -31.35668,31.892551 -28.6391,29.59816 -29.48854,30.46859 -28.87833,28.83268 -25.03429,26.95808 -38.35761,39.37704 -29.63898,28.82491 -31.463328,32.61405 -19.023448,20.53084 -12.45422,13.87955 18.601578,20.2869 21.966428,26.00747 21.07322,27.16014 21.38253,23.3151 25.5094,36.68705 27.78974,32.11155 25.98961,31.8056 29.33364,39.13311 28.81697,33.77693 25.12146,32.03727 24.12434,26.24624 23.03746,30.9437 18.74988,24.01252 31.22492,35.50176 34.32887,46.42819 29.81351,33.96813 32.72764,41.69799 32.46761,38.22298 36.57249,47.20111 37.04608,44.8788 39.00495,49.5696 42.87987,52.9732 44.01231,55.8421 35.67803,43.7143 36.61707,45 31.24977,38.9552 30.99965,34.33 25.91144,32.4448 25.95426,-30.4252 35.51185,-40.4965 32.85094,-38.5988 35.3432,-38.8778 35.9473,-40.2221 34.7043,-39.956 40.2466,-47.9417 35.6305,-39.2852 39.6401,-48.8395 46.5895,-52.80126 39.5568,-42.95865 27.2043,-37.08301 43.8405,-49.18275 35.5875,-36.28537 28.656,-35.42134 38.5833,-41.76271 40.3365,-45.55866 41.1219,-47.17513 41.6402,-49.59946 39.2872,-46.4797 42.0842,-47.08284 48.3004,-56.91816 38.0389,-43.68738 25.496,-29.25782 -32.9127,-37.14846 -38.5666,-39.65493 -47.3535,-50.85642 -50.5199,-53.44558 -51.1218,-54.55009 -36.7478,-39.498611 -35.0344,-37.064743 -21.9136,-24.195411 -42.3218,0.975867 -52.564,-0.580236 -51.8577,-0.482747 -57.6143,-0.0265 -64.4008,-0.630528 -67.2561,1.074554 -68.2634,-1.212313 -74.60649,-0.118929"
       id="path904" />
    <path
       style="fill:none;stroke:#000000;stroke-width:1px;stroke-linecap:butt;stroke-linejoin:miter;stroke-opacity:1"
       d="M 430.63376,149.68497 m 43.49055,0.14711 45.46314,0.0427 30.67979,0.50752 18.49981,0.0 m -25.35537,13.85528 -30.12049,17.35677 -29.01714,19.58034 -32.36023,25.85492 -31.15319,24.75419 -27.50988,30.38298 -20.01958,30.83692 -16.84877,28.71472 -15.37607,36.8833 -9.05204,40.02283 -2.36874,37.38677 2.8283,40.80444 9.28201,35.45506 -21.12664,-24.54765 -27.29565,-32.30555 -27.72104,-33.93018 -28.38839,-34.3039 -24.81867,-25.0448 21.08032,-22.72927 26.92356,-28.35793 28.10549,-29.3497 37.05164,-37.5378 34.41962,-41.89144 42.67596,-40.8646"
       id="path906" />
    <path
       style="fill:none;stroke:#000000;stroke-width:1px;stroke-linecap:butt;stroke-linejoin:miter;stroke-opacity:1"
       d="m 410.38852,644.26419 23.13993,18.37067 29.3381,10.24535 23.04882,10.23926 43.80961,12.0285 36.69227,4.12644 36.13018,5.64239 52.71182,5.39288 58.01133,3.27735 45.59932,0.30553 59.08722,2.91279 50.60262,1.70078 51.48577,0.0924 60.86016,2.62616 54.66453,2.18422 58.253,5.3676 51.4758,7.78883 43.249,11.83504 26.4252,10.96785 20.7472,18.35561 8.8511,19.48531 -2.2466,20.01163 -14.3534,20.41525 -20.8083,14.28669 -21.9274,13.3242 -29.458,14.74564 -37.6424,10.46413 -39.8866,7.69292 -45.084,7.02593 -50.58002,1.78601 -39.09673,-5.08347 -22.95334,-8.0508 -8.26467,-18.21597 -14.93885,-19.11134 -18.19447,-12.49892 -19.16892,-11.26177 -30.55442,-13.66617 -31.33893,-11.68221 -33.5839,-7.95167 -44.26474,-6.74119 -49.27726,1.01357 -46.19057,11.29615 -23.16745,16.98361 -7.82752,9.84367 -5.47177,18.38033 -26.46546,-27.13912 -19.79187,-27.56472 -27.66543,-33.03748 -33.36043,-38.00158 -27.56333,-31.31355 -21.9111,-22.74257"
       id="path908" />
    <path
       style="fill:none;stroke:#000000;stroke-width:1px;stroke-linecap:butt;stroke-linejoin:miter;stroke-opacity:1"
       d="m 701.0903,980.39716 44.71689,11.70347 60.78363,13.69397 52.27151,11.2594 49.28394,1.7298 58.89255,2.2147 50.17078,-5.4802 46.5925,-8.3787 41.3774,-12.49481 23.805,-7.94754 -20.8187,24.40905 -27.6287,26.5579 -26.6176,29.4447 -37.7215,40.7157 -32.45849,36.9808 -32.77156,32.5004 -24.65309,25.6909 -16.68361,21.1977 -28.57362,-32.5271 -33.98138,-42.9148 -42.20377,-46.5265 -43.85541,-50.9611 -29.71396,-36.6134"
       id="path910" />
    <path
       style="fill:none;stroke:#000000;stroke-width:1px;stroke-linecap:butt;stroke-linejoin:miter;stroke-opacity:1"
       d="m 1135.4759,150.25781 34.5583,-0.76284 41.0713,1.07456 30.3103,0.40365 23.5207,0.18395 14.1724,-0.2641 -5.0104,14.90982 -4.4448,19.42686 -8.1015,25.88052 -6.4741,25.602 -6.0481,25.4595 -7.9459,-10.91728 -3.6512,-13.83402 -8.5038,-15.65161 -18.4913,-22.99267 -14.9396,-13.29908 -16.7571,-11.92742 -17.8298,-9.978 -14.0645,-7.04746"
       id="path912" />
    <path
       style="fill:none;stroke:#000000;stroke-width:1px;stroke-linecap:butt;stroke-linejoin:miter;stroke-opacity:1"
       d="m 1179.7762,400.93821 20.3662,1.94836 50.517,-0.41431 35.628,-0.46509 39.1548,-1.2264 45.9513,-0.14663 40.2353,2.04646 24.2216,-2.67888 24.4391,1.44992 -1.6768,-50.26866 1.4211,-42.33612 0.9832,-43.49905 1.5463,-37.16331 1.5441,-43.17063 18.1922,17.53485 27.3804,30.17036 26.7482,30.5983 29.0729,29.42465 29.5183,30.96205 24.3559,24.74951 15.0492,15.39189 17.1188,17.24789 -21.8392,27.67461 -31.6101,37.91405 -33.8523,39.25818 -25.6503,27.14204 -27.5969,34.51898 -23.3122,26.70137 -25.5976,30.21427 -18.6535,22.9189 -16.4537,20.16202 -4.6486,-22.61756 -12.8657,-31.5587 -21.4196,-25.34376 -30.1468,-25.1364 -30.4254,-21.28328 -48.0316,-17.8754 -41.6886,-11.07645 -52.2926,-11.33903 -57.5146,-8.62419 -56.1902,-4.72692 -58.8168,-2.23208 -61.90642,-1.47161 -64.99165,-2.92179 -62.69871,-1.71706 -66.45424,-4.79616 -47.54453,-6.31169 -45.34309,-12.30055 -36.2643,-16.70755 -22.06413,-20.0697 -15.3227,-25.2125 -5.88186,-29.47725 8.64657,-31.65706 15.39814,-23.09016 32.32135,-29.45244 41.77093,-24.42406 36.92813,-15.14866 48.84567,-13.29753 59.16716,-9.70494 69.28889,-3.25722 38.75585,2.73968 47.85115,3.98699 46.50579,8.16751 44.2148,17.75106 22.9054,12.00344 35.7896,25.90358 16.3313,25.07237 16.8193,31.20956 8.4994,33.99262 3.2997,25.19215"
       id="path914" />
  </g>
  <g
     inkscape:groupmode="layer"
     id="layer1"
     inkscape:label="root" />
</svg>
