<?xml version="1.0" encoding="UTF-8" standalone="no"?>
<svg
   xmlns:dc="http://purl.org/dc/elements/1.1/"
   xmlns:cc="http://creativecommons.org/ns#"
   xmlns:rdf="http://www.w3.org/1999/02/22-rdf-syntax-ns#"
   xmlns:svg="http://www.w3.org/2000/svg"
   xmlns="http://www.w3.org/2000/svg"
   xmlns:sodipodi="http://sodipodi.sourceforge.net/DTD/sodipodi-0.dtd"
   xmlns:inkscape="http://www.inkscape.org/namespaces/inkscape"
   width="1024"
   height="1024"
   viewBox="0 0 1024 1024"
   version="1.1"
   id="svg1004"
   sodipodi:docname="Suzanne_Shell_Dashed_1024.svg"
   inkscape:version="1.0.1 (0767f8302a, 2020-10-17)">
  <metadata
     id="metadata1010">
    <rdf:RDF>
      <cc:Work
         rdf:about="">
        <dc:format>image/svg+xml</dc:format>
        <dc:type
           rdf:resource="http://purl.org/dc/dcmitype/StillImage" />
        <dc:title></dc:title>
      </cc:Work>
    </rdf:RDF>
  </metadata>
  <defs
     id="defs1008">
    <inkscape:path-effect
       effect="dashed_stroke"
       id="path-effect4240"
       is_visible="true"
       lpeversion="1"
       numberdashes="4"
       holefactor="0"
       splitsegments="true"
       halfextreme="true"
       unifysegment="true"
       message="Add &lt;b&gt;&quot;Fill Between Many LPE&quot;&lt;/b&gt; to add fill." />
    <inkscape:path-effect
       effect="dashed_stroke"
       id="path-effect4238"
       is_visible="true"
       lpeversion="1"
       numberdashes="4"
       holefactor="0"
       splitsegments="true"
       halfextreme="true"
       unifysegment="true"
       message="Add &lt;b&gt;&quot;Fill Between Many LPE&quot;&lt;/b&gt; to add fill." />
    <inkscape:path-effect
       effect="dashed_stroke"
       id="path-effect4236"
       is_visible="true"
       lpeversion="1"
       numberdashes="4"
       holefactor="0"
       splitsegments="true"
       halfextreme="true"
       unifysegment="true"
       message="Add &lt;b&gt;&quot;Fill Between Many LPE&quot;&lt;/b&gt; to add fill." />
    <inkscape:path-effect
       effect="dashed_stroke"
       id="path-effect4234"
       is_visible="true"
       lpeversion="1"
       numberdashes="2"
       holefactor="0"
       splitsegments="true"
       halfextreme="true"
       unifysegment="true"
       message="Add &lt;b&gt;&quot;Fill Between Many LPE&quot;&lt;/b&gt; to add fill." />
    <inkscape:path-effect
       effect="dashed_stroke"
       id="path-effect4232"
       is_visible="true"
       lpeversion="1"
       numberdashes="4"
       holefactor="0"
       splitsegments="true"
       halfextreme="true"
       unifysegment="true"
       message="Add &lt;b&gt;&quot;Fill Between Many LPE&quot;&lt;/b&gt; to add fill." />
  </defs>
  <sodipodi:namedview
     pagecolor="#ffffff"
     bordercolor="#666666"
     borderopacity="1"
     objecttolerance="10"
     gridtolerance="10"
     guidetolerance="10"
     inkscape:pageopacity="0"
     inkscape:pageshadow="2"
     inkscape:window-width="1869"
     inkscape:window-height="1025"
     id="namedview1006"
     showgrid="false"
     inkscape:zoom="0.85742188"
     inkscape:cx="498.84953"
     inkscape:cy="512.39012"
     inkscape:window-x="51"
     inkscape:window-y="27"
     inkscape:window-maximized="1"
     inkscape:current-layer="layer1"
     inkscape:snap-bbox="true"
     inkscape:snap-midpoints="false"
     inkscape:snap-text-baseline="true"
     inkscape:document-rotation="0" />
  <desc
     id="desc2">, (Blender 2.92.0)</desc>
  <g
     inkscape:groupmode="layer"
     id="layer1"
     inkscape:label="root">
    <path
       style="fill:none;stroke:#000000;stroke-width:1px;stroke-linecap:butt;stroke-linejoin:miter;stroke-opacity:1"
       d="M 515.32769,165.4056 512,165.004 l -3.32767,0.4016 m -6.65533,0.80321 -6.65533,0.80321 m -6.65534,0.80321 -6.65533,0.80321 m -6.65533,0.80321 -6.65534,0.8032 m -6.65533,0.80321 -6.65533,0.80321 m -6.65534,0.80321 -6.65533,0.80321 m -6.65533,0.80321 -6.65534,0.8032 m -6.65533,0.80321 -6.65533,0.80321 m -6.65534,0.80321 -6.65533,0.80321 m -6.65533,0.80321 -6.65534,0.8032 m -6.65533,0.80321 -6.65533,0.80321 m -6.65534,0.80321 -6.65533,0.80321 m -6.65533,0.80321 -3.32767,0.4016 -2.36054,2.26218 m -4.72107,4.52436 -4.72107,4.52435 m -4.72107,4.52436 -4.72107,4.52436 m -4.72107,4.52435 -4.72107,4.52436 m -4.72108,4.52436 -4.72107,4.52436 m -4.72107,4.52435 -4.72107,4.52436 m -4.72107,4.52436 -4.72107,4.52435 m -4.72107,4.52436 -2.36054,2.26218 -2.75395,2.34085 m -5.5079,4.6817 -5.5079,4.6817 m -5.5079,4.6817 -5.5079,4.6817 m -5.5079,4.6817 -5.5079,4.6817 m -5.5079,4.6817 -5.5079,4.6817 m -5.5079,4.6817 -2.75395,2.34085 -0.91796,3.44242 m -1.83591,6.88483 -1.83592,6.88483 m -1.83592,6.88484 -1.83592,6.88483 m -1.83591,6.88483 -1.83592,6.88484 m -1.83592,6.88483 -1.83591,6.88483 m -1.83592,6.88484 -1.83592,6.88483 m -1.83591,6.88483 -0.91796,3.44242 -2.754,-2.0655 m -5.508,-4.131 -2.754,-2.0655 -2.92606,-1.54906 m -5.85213,-3.09813 -5.85212,-3.09812 m -5.85213,-3.09813 -5.85212,-3.09812 m -5.85213,-3.09813 -5.85212,-3.09812 m -5.85213,-3.09813 -2.92606,-1.54906 -3.7178,-0.5508 m -7.4356,-1.1016 -7.4356,-1.1016 m -7.4356,-1.1016 -7.4356,-1.1016 m -7.4356,-1.1016 -7.4356,-1.1016 m -7.4356,-1.1016 -7.4356,-1.1016 m -7.4356,-1.1016 -3.7178,-0.5508 -1.950708,3.09817 m -3.901417,6.19633 -3.901417,6.19633 m -3.901416,6.19634 -3.901417,6.19633 m -3.901417,6.19633 -3.901416,6.19634 m -3.901417,6.19633 -3.901417,6.19633 m -3.901416,6.19634 -3.901417,6.19633 m -3.901417,6.19633 -1.950708,3.09817 0.803208,3.55717 m 1.606417,7.11433 1.606417,7.11433 m 1.606416,7.11434 1.606417,7.11433 m 1.606417,7.11433 1.606416,7.11434 m 1.606417,7.11433 1.606417,7.11433 m 1.606416,7.11434 1.606417,7.11433 m 1.606417,7.11433 0.803208,3.55717 3.012125,1.72122 m 6.02425,3.44244 6.02425,3.44243 m 6.02425,3.44244 6.02425,3.44244 m 6.02425,3.44244 6.02425,3.44243 m 6.02425,3.44244 6.024255,3.44244 m 6.02425,3.44244 6.02425,3.44243 m 6.02425,3.44244 6.02425,3.44244 m 6.02425,3.44244 6.02425,3.44243 m 6.02425,3.44244 3.01212,1.72122 3.34407,0.49179 m 6.68814,0.98357 6.68815,0.98357 m 6.68814,0.98357 6.68814,0.98357 m 6.68815,0.98357 6.68814,0.98357 m 6.68814,0.98358 6.68814,0.98357 m 6.68815,0.98357 6.68814,0.98357 m 6.68814,0.98357 6.68815,0.98357 m 6.68814,0.98357 3.34407,0.49179 3.95881,-0.34425 m 7.91763,-0.6885 7.91762,-0.6885 m 7.91763,-0.6885 7.91762,-0.6885 m 7.91763,-0.6885 7.91762,-0.6885 m 7.91763,-0.6885 3.95881,-0.34425 3.6145,1.54912 m 7.229,3.09825 7.229,3.09825 m 7.229,3.09825 7.229,3.09825 m 7.229,3.09825 7.229,3.09825 m 7.229,3.09825 3.6145,1.54913 2.85531,2.48013 m 5.71062,4.96025 5.71061,4.96025 m 5.71062,4.96025 5.71062,4.96025 m 5.71061,4.96026 5.71062,4.96025 m 5.71062,4.96025 5.71061,4.96025 m 5.71062,4.96025 2.85531,2.48013 -1.31643,2.98079 m -2.63286,5.96158 -2.63286,5.96158 m -2.63287,5.96158 -2.63286,5.96158 m -2.63286,5.96158 -1.31643,2.98079 -0.49175,3.24571 m -0.9835,6.49143 -0.9835,6.49143 m -0.9835,6.49143 -0.9835,6.49143 m -0.9835,6.49143 -0.9835,6.49143 m -0.9835,6.49142 -0.9835,6.49143 m -0.9835,6.49143 -0.9835,6.49143 m -0.9835,6.49143 -0.9835,6.49143 m -0.9835,6.49143 -0.49175,3.24571 -0.2754,3.4424 m -0.5508,6.8848 -0.5508,6.8848 m -0.5508,6.8848 -0.5508,6.8848 m -0.5508,6.8848 -0.5508,6.8848 m -0.5508,6.8848 -0.5508,6.8848 m -0.5508,6.8848 -0.2754,3.4424 3.4425,4.8195 m 6.885,9.639 3.4425,4.8195 3.27025,0.51631 m 6.5405,1.03263 6.5405,1.03262 m 6.5405,1.03263 6.5405,1.03262 m 6.5405,1.03263 6.5405,1.03262 m 6.5405,1.03263 3.27025,0.51631 3.95881,0.34425 m 7.91763,0.6885 7.91762,0.6885 m 7.91763,0.6885 7.91762,0.6885 m 7.91763,0.6885 7.91762,0.6885 m 7.91763,0.6885 3.95881,0.34425 3.95881,-0.34425 m 7.91763,-0.6885 7.91762,-0.6885 m 7.91763,-0.6885 7.91762,-0.6885 m 7.91763,-0.6885 7.91762,-0.6885 m 7.91763,-0.6885 3.95881,-0.34425 3.27025,-0.51631 m 6.5405,-1.03263 6.5405,-1.03262 m 6.5405,-1.03263 6.5405,-1.03262 m 6.5405,-1.03263 6.5405,-1.03262 m 6.5405,-1.03263 3.27025,-0.51631 3.4425,-4.8195 m 6.885,-9.639 3.4425,-4.8195 -0.2754,-3.4424 m -0.5508,-6.8848 -0.5508,-6.8848 m -0.5508,-6.8848 -0.5508,-6.8848 m -0.5508,-6.8848 -0.5508,-6.8848 m -0.5508,-6.8848 -0.5508,-6.8848 m -0.5508,-6.8848 -0.2754,-3.4424 -0.49175,-3.24571 m -0.9835,-6.49143 -0.9835,-6.49143 m -0.9835,-6.49143 -0.9835,-6.49143 m -0.9835,-6.49143 -0.9835,-6.49143 m -0.9835,-6.49142 -0.9835,-6.49143 m -0.9835,-6.49143 -0.9835,-6.49143 m -0.9835,-6.49143 -0.9835,-6.49143 m -0.9835,-6.49143 -0.49175,-3.24571 -1.76971,-4.30474 m -3.53943,-8.60948 -3.53943,-8.60948 m -3.53943,-8.60948 -1.76971,-4.30474 2.16243,-2.40627 m 4.32485,-4.81254 2.16243,-2.40627 2.92606,-2.58181 m 5.85213,-5.16363 5.85212,-5.16362 m 5.85213,-5.16363 5.85212,-5.16362 m 5.85213,-5.16363 5.85212,-5.16362 m 5.85213,-5.16363 2.92606,-2.58181 3.6145,-1.54912 m 7.229,-3.09825 7.229,-3.09825 m 7.229,-3.09825 7.229,-3.09825 m 7.229,-3.09825 7.229,-3.09825 m 7.229,-3.09825 3.6145,-1.54913 3.95881,0.34425 m 7.91763,0.6885 7.91762,0.6885 m 7.91763,0.6885 7.91762,0.6885 m 7.91763,0.6885 7.91762,0.6885 m 7.91763,0.6885 3.95881,0.34425 3.34407,-0.49179 m 6.68814,-0.98357 6.68815,-0.98357 m 6.68814,-0.98357 6.68814,-0.98357 m 6.68815,-0.98357 6.68814,-0.98357 m 6.68814,-0.98358 6.68814,-0.98357 m 6.68815,-0.98357 6.68814,-0.98357 m 6.68814,-0.98357 6.68815,-0.98357 m 6.68814,-0.98357 3.34407,-0.49179 3.01212,-1.72122 m 6.02426,-3.44244 6.02425,-3.44243 m 6.02424,-3.44244 6.02426,-3.44244 m 6.02424,-3.44244 6.02425,-3.44243 m 6.02425,-3.44244 6.02426,-3.44244 m 6.02424,-3.44244 6.02426,-3.44243 m 6.02425,-3.44244 6.02425,-3.44244 m 6.02424,-3.44244 6.02426,-3.44243 m 6.02425,-3.44244 3.01212,-1.72122 0.80321,-3.55717 m 1.60642,-7.11433 1.60641,-7.11433 m 1.60642,-7.11434 1.60642,-7.11433 m 1.60641,-7.11433 1.60642,-7.11434 m 1.60642,-7.11433 1.60641,-7.11433 m 1.60642,-7.11434 1.60642,-7.11433 m 1.60641,-7.11433 0.80321,-3.55717 -1.95071,-3.09817 m -3.90141,-6.19633 -3.90142,-6.19633 m -3.90142,-6.19634 -3.90141,-6.19633 m -3.90142,-6.19633 -3.90142,-6.19634 m -3.90141,-6.19633 -3.90142,-6.19633 m -3.90142,-6.19634 -3.90141,-6.19633 m -3.90142,-6.19633 -1.95071,-3.09817 -3.7178,0.5508 m -7.4356,1.1016 -7.4356,1.1016 m -7.4356,1.1016 -7.4356,1.1016 m -7.4356,1.1016 -7.4356,1.1016 m -7.4356,1.1016 -7.4356,1.1016 m -7.4356,1.1016 -3.7178,0.5508 -2.92606,1.54906 m -5.85213,3.09813 -5.85212,3.09812 m -5.85213,3.09813 -5.85212,3.09812 m -5.85213,3.09813 -5.85212,3.09812 m -5.85213,3.09813 -2.92606,1.54906 -2.754,2.0655 m -5.508,4.131 -2.754,2.0655 -0.91796,-3.44242 m -1.83591,-6.88483 -1.83592,-6.88483 m -1.83592,-6.88484 -1.83591,-6.88483 m -1.83592,-6.88483 -1.83592,-6.88484 m -1.83591,-6.88483 -1.83592,-6.88483 m -1.83592,-6.88484 -1.83591,-6.88483 m -1.83592,-6.88483 -0.91796,-3.44242 -2.75395,-2.34085 m -5.5079,-4.6817 -5.5079,-4.6817 m -5.5079,-4.6817 -5.5079,-4.6817 m -5.5079,-4.6817 -5.5079,-4.6817 m -5.5079,-4.6817 -5.5079,-4.6817 m -5.5079,-4.6817 -2.75395,-2.34085 -2.3605,-2.26218 m -4.721,-4.52436 -4.721,-4.52435 m -4.721,-4.52436 -4.721,-4.52436 m -4.721,-4.52435 -4.721,-4.52436 m -4.721,-4.52436 -4.721,-4.52436 m -4.721,-4.52435 -4.721,-4.52436 m -4.721,-4.52436 -4.721,-4.52435 m -4.721,-4.52436 -2.3605,-2.26218 -3.32769,-0.4016 m -6.65537,-0.80321 -6.65538,-0.80321 m -6.65537,-0.80321 -6.65538,-0.80321 m -6.65537,-0.80321 -6.65538,-0.8032 m -6.65537,-0.80321 -6.65538,-0.80321 m -6.65537,-0.80321 -6.65538,-0.80321 m -6.65537,-0.80321 -6.65538,-0.8032 m -6.65537,-0.80321 -6.65538,-0.80321 m -6.65537,-0.80321 -6.65538,-0.80321 m -6.65537,-0.80321 -6.65538,-0.8032 m -6.65537,-0.80321 -6.65538,-0.80321 m -6.65537,-0.80321 -6.65538,-0.80321 M 515.32769,165.4056 512,165.004"
       id="path1013"
       inkscape:path-effect="#path-effect4234"
       inkscape:original-d="m 512,165.004 -159.728,19.277 -66.095,63.341 -55.079,46.817 -22.031,82.618 -11.016,-8.262 -46.817,-24.785 -74.356,-11.016 -46.817,74.356 19.277,85.372 96.388,55.079 93.634,13.77 63.341,-5.508 57.832,24.786 57.10617,49.60252 -15.79717,35.76948 -13.769,90.88 -5.508,68.848 13.77,19.278 52.324,8.261 63.341,5.508 63.341,-5.508 52.324,-8.261 13.77,-19.278 -5.508,-68.848 -13.769,-90.88 -14.15771,-34.43792 8.64971,-9.62508 46.817,-41.309 57.832,-24.786 63.341,5.508 93.634,-13.77 96.388,-55.079 19.277,-85.372 -46.817,-74.356 -74.356,11.016 -46.817,24.785 -11.016,8.262 -22.031,-82.618 -55.079,-46.817 -66.094,-63.341 z" />
  </g>
</svg>
