<?xml version="1.0" encoding="UTF-8" standalone="no"?>
<svg
   xmlns:dc="http://purl.org/dc/elements/1.1/"
   xmlns:cc="http://creativecommons.org/ns#"
   xmlns:rdf="http://www.w3.org/1999/02/22-rdf-syntax-ns#"
   xmlns:svg="http://www.w3.org/2000/svg"
   xmlns="http://www.w3.org/2000/svg"
   version="1.1"
   id="svg44"
   width="1365.3333"
   height="1365.3333"
   viewBox="0 0 1365.3333 1365.3333">
  <metadata
     id="metadata50">
    <rdf:RDF>
      <cc:Work
         rdf:about="">
        <dc:format>image/svg+xml</dc:format>
        <dc:type
           rdf:resource="http://purl.org/dc/dcmitype/StillImage" />
        <dc:title></dc:title>
      </cc:Work>
    </rdf:RDF>
  </metadata>
  <defs
     id="defs48" />
  <g
     id="layer2">
    <path
       id="path947"
       style="fill:none;stroke:#000000;stroke-width:1;stroke-linecap:butt;stroke-linejoin:miter;stroke-opacity:1;stroke-miterlimit:4;stroke-dasharray:12,12;stroke-dashoffset:0"
       d="m 731.50887,969.53026 -0.54388,10.1071 -46.23721,17.5617 -1.1905,14.76014 36.08875,27.3616 v 10.5725 l -44.73589,19.6879 -0.59609,15.7828 38.36357,27.5731 -0.29581,9.9672 -44.05075,22.6574 0.27276,14.2814 39.76937,25.9798 -0.30453,10.0334 -41.52321,23.0411 0.27315,16.2247 38.98335,24.6104 47.48768,-2.3158 34.23138,-35.5887 c 0,0 7.98761,-113.1491 12.9728,-147.4975 4.98519,-34.3484 23.02645,-142.07494 28.34695,-169.47459 5.3205,-27.39964 41.48877,-147.04689 46.72988,-161.61918 5.24111,-14.5723 26.62984,-72.37269 34.85047,-90.6152 8.22064,-18.24251 15.85873,-38.26183 15.85873,-38.26183 l 18.80781,-8.60133 14.20148,-44.51568 -9.66511,-18.54109 c 0,0 2.55922,-39.30586 2.48523,-51.63386 -0.074,-12.32801 -5.61827,-56.23553 -5.61827,-56.23553 l 12.45956,-6.36453 6.22877,-31.82506 -20.39155,-29.59675 8.2667,-26.22906 33.66337,-12.40572 13.51687,-28.88236 -12.28962,-31.28022 14.63632,-25.59399 35.9243,-3.29993 19.5107,-23.19839 -3.7718,-37.10885 26.2676,-25.14513 1.5434,-18.49047 -21.0128,-23.91486 -17.8245,0.53137 c 0,0 -51.95804,49.23095 -85.53171,98.58281 -33.57368,49.35185 -56.79818,109.13619 -56.79818,109.13619 0,0 0.38127,4.39861 -16.25292,14.14849 -16.63419,9.74987 -42.48693,-23.7573 -42.48693,-23.7573 0,0 -22.16691,-26.0549 -52.34227,-27.27496 -30.17536,-1.22005 -37.8884,27.9743 -40.63527,34.13638 -2.74687,6.16207 -26.04729,31.89824 -18.67773,52.69177 7.36956,20.79353 41.98839,40.95334 51.98389,62.94238 9.9955,21.98904 17.4503,26.36678 18.14451,45.75957 0.6942,19.39279 -0.16048,75.09779 -35.83432,106.51588 -35.67384,31.41809 -63.24337,35.27837 -85.2155,34.82886 -21.97213,-0.44952 -52.013,-3.53415 -78.45652,-23.34193 -26.44352,-19.80779 -58.28617,-67.31272 -49.39402,-109.64393 8.89215,-42.33121 21.65528,-72.60549 52.4697,-93.36772 30.81441,-20.76223 14.58894,-54.24345 14.58894,-54.24345 l -26.14114,-43.6214 c 0,0 -10.41277,-13.45409 -29.91372,-13.48126 -19.50096,-0.0272 -50.39722,25.95803 -40.68645,18.87195 9.71078,-7.08609 -28.2874,35.53098 -46.4804,33.24215 -18.193,-2.28883 -23.1578,-14.20314 -24.97008,-19.63953 -1.81227,-5.4364 -24.14547,-58.99575 -62.30447,-115.10517 -38.159,-56.10942 -79.18171,-87.9132 -79.18171,-87.9132 l -17.20321,0.35736 v 0 l -20.95163,27.87604 m 20.95163,-27.87604 -20.95163,27.87604 0.90915,14.47642 26.93109,24.7291 -2.58989,35.40008 19.77972,26.41289 34.76157,2.78184 16.0668,25.93258 -13.10915,30.61382 13.02567,29.82633 33.41217,10.68178 8.44344,28.4075 -19.35657,28.23842 4.9887,31.74239 11.82183,7.0834 c 0,0 -6.32478,35.24381 -5.93823,55.39824 0.38654,20.15443 4.20499,50.49867 4.20499,50.49867 l -10.38075,17.59859 13.78916,45.80923 19.88193,9.89224 c 0,0 80.02201,206.82264 95.35293,287.34642 15.33093,80.52378 37.26911,210.80632 37.86252,250.09902 0.5934,39.2927 6.14794,71.2041 6.14794,71.2041 l 39.44011,37.124 28.45811,0.085 c 12.27478,-14.6503 11.07014,-15.1543 11.07014,-15.1543 l -0.69932,-26.7651 41.02798,-23.472 -1.29717,-18.7901 -41.56331,-18.3943 -1.27395,-12.2158 39.45902,-23.288 -0.74003,-17.8859 -43.00287,-20.3791 -0.77847,-10.6532 36.9343,-26.9633 -1.85677,-17.2957 -43.7969,-17.8488 -2.11696,-9.7782 35.83583,-28.00094 -1.23707,-17.7151 -45.93283,-15.6019 -1.46551,-8.9822 36.51174,-33.00672 -2.78258,-16.53999 -46.72174,-12.26673 c 0,0 -29.56324,-113.10048 -41.01662,-144.96322 -11.45338,-31.86275 -35.45227,-96.03001 -35.45227,-96.03001 L 503.78236,585.5833 c 0,0 -2.94997,-11.88282 4.81563,-12.25563 7.7656,-0.37282 23.47312,39.51463 43.3656,54.74828 19.89249,15.23365 49.57683,45.99739 124.83617,49.6982 75.25933,3.70081 129.27299,-52.6013 138.60355,-65.68449 9.33056,-13.08318 20.91944,-32.04864 22.23755,-34.01251 1.31812,-1.96387 2.33969,-5.49238 7.27891,-4.74964 4.93922,0.74274 4.34788,0.67319 5.3763,5.70375 1.02841,5.03056 -19.20004,46.92286 -21.06478,51.85638 -1.86474,4.93351 -64.55747,184.94718 -58.15446,164.77799 6.40302,-20.16918 -27.10902,111.39193 -27.10902,111.39193 l -47.14997,16.4061 -0.734,15.0377 35.42503,31.0289" />
  </g>
</svg>
