<?xml version="1.0" encoding="UTF-8" standalone="no"?>
<svg
   xmlns:dc="http://purl.org/dc/elements/1.1/"
   xmlns:cc="http://creativecommons.org/ns#"
   xmlns:rdf="http://www.w3.org/1999/02/22-rdf-syntax-ns#"
   xmlns:svg="http://www.w3.org/2000/svg"
   xmlns="http://www.w3.org/2000/svg"
   xmlns:sodipodi="http://sodipodi.sourceforge.net/DTD/sodipodi-0.dtd"
   xmlns:inkscape="http://www.inkscape.org/namespaces/inkscape"
   width="210mm"
   height="297mm"
   viewBox="0 0 210 297"
   version="1.1"
   id="svg2311"
   inkscape:version="1.0.2 (1.0.2+r75+1)"
   sodipodi:docname="HelloWorld.svg">
  <defs
     id="defs2305" />
  <sodipodi:namedview
     id="base"
     pagecolor="#ffffff"
     bordercolor="#666666"
     borderopacity="1.0"
     inkscape:pageopacity="0.0"
     inkscape:pageshadow="2"
     inkscape:zoom="2.8"
     inkscape:cx="400"
     inkscape:cy="560"
     inkscape:document-units="mm"
     inkscape:current-layer="layer1"
     inkscape:document-rotation="0"
     showgrid="false"
     inkscape:window-width="1869"
     inkscape:window-height="1025"
     inkscape:window-x="51"
     inkscape:window-y="27"
     inkscape:window-maximized="1" />
  <metadata
     id="metadata2308">
    <rdf:RDF>
      <cc:Work
         rdf:about="">
        <dc:format>image/svg+xml</dc:format>
        <dc:type
           rdf:resource="http://purl.org/dc/dcmitype/StillImage" />
        <dc:title></dc:title>
      </cc:Work>
    </rdf:RDF>
  </metadata>
  <g
     inkscape:label="Layer 1"
     inkscape:groupmode="layer"
     id="layer1">
    <path
       style="fill:none;stroke:#000000;stroke-width:0.26499999;stroke-opacity:1;stroke-miterlimit:4;stroke-dasharray:0.79499996,0.26499999;stroke-dashoffset:0"
       d="m 111.16223,187.13483 c -0.99967,-0.54294 -1.66135,-2.39395 -1.42328,-3.98153 0.10165,-0.67783 0.84594,-2.53249 1.65397,-4.12147 0.80804,-1.58898 1.39464,-2.96357 1.30356,-3.05464 -0.0911,-0.0911 -0.99658,-0.0171 -2.01224,0.16442 -1.43605,0.25664 -2.05802,0.26025 -2.79731,0.0163 -0.52287,-0.17256 -0.9794,-0.27211 -1.01451,-0.22123 -0.0351,0.0509 -0.85286,1.34443 -1.81721,2.87456 -2.14539,3.40406 -2.73412,3.98499 -4.21858,4.16271 -1.00118,0.11986 -1.240845,0.28628 -1.956358,1.35842 -1.53357,2.29795 -3.785187,3.30388 -6.327603,2.82692 -1.775095,-0.33301 -4.078523,-3.05836 -4.095975,-4.84624 -0.0066,-0.67168 -0.471932,-0.80288 -0.703879,-0.19844 -0.248428,0.6474 -1.154234,0.49145 -1.152628,-0.19844 0.0016,-0.70743 2.552266,-4.68116 3.899426,-6.07509 1.371854,-1.41948 3.601075,-2.41352 5.047033,-2.25054 2.460856,0.27737 4.545904,3.10365 4.545904,6.16196 0,1.68047 0.29538,2.13987 1.16202,1.80731 0.61077,-0.23437 4.14261,-5.58737 4.66068,-7.06392 0.60624,-1.72782 1.43331,-2.03563 1.79045,-0.66635 0.22481,0.86192 0.25297,0.87626 1.66558,0.84863 0.79029,-0.0155 1.93566,-0.0702 2.54527,-0.12173 1.29497,-0.10937 2.19892,0.51831 2.19892,1.52688 0,0.34847 -0.65076,1.94433 -1.44613,3.54637 -1.70795,3.44017 -1.93599,4.35964 -1.35832,5.47674 0.516,0.99782 1.15379,1.21787 2.4883,0.85853 1.21921,-0.3283 3.38198,-2.47704 4.29449,-4.26664 0.32847,-0.64416 1.41317,-2.38763 2.41047,-3.87437 l 1.81327,-2.70316 v -5.04905 c 0,-6.16647 0.23575,-6.87484 2.28799,-6.87484 1.64495,0 2.73909,1.67104 2.73909,4.18331 0,2.03899 -0.31381,2.87519 -2.1633,5.76442 l -1.54086,2.40712 v 4.90268 c 0,5.37972 0.062,5.59797 1.57816,5.55486 1.50598,-0.0428 2.3035,-0.93855 8.07913,-9.07401 0.7276,-1.0249 1.65674,-2.04136 2.06474,-2.25881 1.85889,-0.99073 4.94589,-0.62603 6.17109,0.72905 0.48595,0.53748 0.49795,0.4248 0.62771,-5.89649 0.13212,-6.43618 0.13305,-6.44453 0.7276,-6.52897 l 0.59532,-0.0846 0.0264,10.66788 c 0.0145,5.86733 0.10868,10.96554 0.20928,11.32934 0.24081,0.87085 1.13516,0.98407 2.13718,0.27057 0.43244,-0.30792 1.56517,-1.74493 2.51718,-3.19334 0.952,-1.44841 1.83397,-2.63348 1.95993,-2.63348 0.12595,0 0.37787,0.17937 0.55981,0.39859 0.27532,0.33174 0.0528,0.82026 -1.32678,2.91239 -1.79008,2.71474 -3.27569,4.24493 -4.39367,4.52552 -1.10438,0.27718 -2.03316,-0.19023 -2.57378,-1.29526 l -0.4876,-0.99665 -0.94837,0.83268 c -1.74649,1.53344 -3.85106,1.97356 -5.71435,1.19503 -1.26812,-0.52985 -2.77169,-2.19675 -3.11015,-3.44799 -0.16092,-0.59488 -0.34025,-1.2447 -0.39852,-1.44405 -0.0654,-0.22391 -0.4837,0.12108 -1.09426,0.90259 -1.70464,2.18194 -3.32344,3.85645 -4.13269,4.27493 -1.04467,0.54022 -2.94995,0.32039 -3.69829,-0.42669 -0.51678,-0.51592 -0.57711,-0.9244 -0.69796,-4.72552 l -0.1323,-4.16078 -1.12448,1.63913 c -0.61846,0.90152 -1.12448,1.71057 -1.12448,1.79788 0,0.40818 -2.70794,4.10901 -3.48766,4.76645 -1.69924,1.43275 -3.80995,1.85204 -5.28641,1.05013 z m -15.893438,-1.5933 c 1.144031,-0.47801 2.084445,-1.29866 2.580637,-2.25201 0.348199,-0.66901 0.331983,-0.68605 -1.350447,-1.41899 -2.133227,-0.92934 -4.000698,-2.87509 -4.248853,-4.42697 -0.200478,-1.25372 -0.50432,-1.20125 -1.538095,0.26562 -1.082368,1.53582 -1.259819,3.97089 -0.416343,5.71328 1.059013,2.18763 2.915621,2.97874 4.973101,2.11907 z m 44.544888,-0.52297 c 1.29866,-0.83833 2.34952,-2.96621 2.34181,-4.74187 -0.0121,-2.78301 -1.6516,-4.74617 -3.96368,-4.74617 -5.10913,0 -6.75751,8.33287 -1.98364,10.02768 1.26884,0.45046 2.31409,0.29402 3.60551,-0.53964 z m -41.064176,-5.21909 c -0.04352,-2.43097 -1.309835,-4.25039 -3.26522,-4.69141 -1.269021,-0.28621 -2.006317,0.25443 -2.006317,1.47118 0,1.58169 3.043497,4.31649 4.828646,4.3389 0.372356,0.005 0.459078,-0.21438 0.442891,-1.11867 z m 26.629926,-9.54854 c 0.60267,-1.10082 0.68574,-1.51888 0.59257,-2.9821 -0.0834,-1.31047 -0.24313,-1.83657 -0.69446,-2.2879 -0.46524,-0.46524 -0.68081,-0.52643 -1.04544,-0.29676 -0.39742,0.25034 -0.46808,0.82049 -0.52415,4.22966 l -0.0648,3.94033 0.51768,-0.66146 c 0.28473,-0.3638 0.83311,-1.2376 1.21862,-1.94177 z m -58.624379,16.89052 c 0,-0.0931 -1.369219,-5.54639 -3.042708,-12.11838 -1.67349,-6.572 -3.042709,-12.15956 -3.042709,-12.41681 0,-0.3144 0.203581,-0.46773 0.621005,-0.46773 0.596068,0 0.724052,0.40639 3.187173,10.12032 2.956142,11.65826 2.790137,11.09521 3.061755,10.38489 0.111291,-0.29104 1.302719,-4.93448 2.647618,-10.31875 1.344898,-5.38427 2.610284,-9.96307 2.811969,-10.17512 0.274089,-0.28817 0.442735,-0.3095 0.667763,-0.0845 0.165584,0.16558 1.45922,4.89616 2.874745,10.51238 1.415526,5.61623 2.644322,10.28196 2.730659,10.3683 0.08634,0.0863 0.23694,-0.18449 0.334674,-0.60185 0.09773,-0.41735 1.184559,-4.68789 2.415169,-9.49007 1.23061,-4.80219 2.348358,-9.16549 2.483886,-9.69624 0.263429,-1.03162 0.720074,-1.37793 1.322993,-1.00334 0.310478,0.19289 0.165669,1.04119 -0.865262,5.06875 -0.680979,2.66039 -2.100312,8.21214 -3.15407,12.33721 -1.858652,7.27593 -2.224182,8.2143 -2.926285,7.5122 -0.149309,-0.14931 -1.395009,-4.77879 -2.768223,-10.28773 -1.373212,-5.50895 -2.567738,-10.19486 -2.654501,-10.41314 -0.08676,-0.21829 -1.363138,4.36562 -2.836388,10.18645 -2.487001,9.82618 -2.721228,10.58939 -3.273951,10.66788 -0.327422,0.0465 -0.595312,0.008 -0.595312,-0.0848 z m 24.97279,-48.70043 c -1.492178,-0.54798 -3.118628,-2.0021 -3.789558,-3.38806 -0.307515,-0.63524 -0.632854,-1.94461 -0.722977,-2.90971 -0.09012,-0.96509 -0.268158,-1.75472 -0.395634,-1.75472 -0.127476,0 -0.612836,0.54062 -1.078574,1.20136 -0.59958,0.85063 -1.002728,1.17892 -1.380908,1.12448 -0.826339,-0.11894 -0.791818,-0.90186 0.101121,-2.29339 0.809805,-1.26197 1.693077,-1.88453 2.673729,-1.88453 0.324072,0 0.697611,-0.36337 1.019958,-0.99219 2.061334,-4.02114 7.093532,-5.49225 9.738759,-2.84702 0.785731,0.78573 0.875877,1.03047 0.875877,2.3779 0,1.29757 -0.102349,1.60436 -0.751941,2.25396 -1.119386,1.11938 -2.585876,1.41035 -6.025126,1.19546 l -2.943137,-0.18389 -0.16995,0.67714 c -0.247359,0.98555 0.292528,3.06202 1.056592,4.06376 0.968044,1.26917 2.580174,2.00562 4.357177,1.99044 2.986691,-0.0255 4.434813,-1.33861 8.829741,-8.00639 l 3.0519,-4.63021 0.003,-5.55625 c 0.002,-3.05594 0.12551,-5.99732 0.27523,-6.5364 0.71813,-2.58566 3.962,-2.76655 5.16978,-0.28828 0.301,0.61763 0.52879,1.78617 0.59208,3.03724 0.1226,2.42355 -0.27366,3.45243 -2.82002,7.32212 l -1.62951,2.47636 v 5.37777 c 0,2.95778 0.11038,5.6681 0.24528,6.02294 0.14099,0.37081 0.5461,0.72065 0.95269,0.8227 1.76614,0.44327 3.60769,-1.10616 6.38661,-5.37352 0.81575,-1.25268 2.2409,-3.41267 3.16701,-4.79998 l 1.68382,-2.52238 v -5.72862 c 0,-3.41567 0.11395,-6.02936 0.28221,-6.47346 0.80935,-2.13611 2.79149,-2.61883 4.35075,-1.05957 1.09579,1.09579 1.55198,2.71527 1.37885,4.89499 -0.14817,1.86537 -0.70046,3.08654 -2.97204,6.57145 l -1.45227,2.22797 v 5.67944 c 0,5.32666 0.0329,5.71231 0.52917,6.2086 0.89146,0.89146 2.18913,0.61714 3.80913,-0.80525 0.52663,-0.46238 2.28905,-2.81946 3.9165,-5.23795 3.63248,-5.3981 4.60031,-6.47159 6.73399,-7.46917 2.73441,-1.27844 4.90131,-0.8509 6.7736,1.33645 1.23566,1.44359 1.78553,3.08448 1.78553,5.32827 0,0.98414 0.12583,1.86711 0.27962,1.96216 0.59098,0.36524 1.583,-0.19385 2.36775,-1.33445 0.83757,-1.21737 1.72408,-1.56123 2.02218,-0.78439 0.18162,0.47329 -0.99041,2.2578 -2.09124,3.18409 -0.55841,0.46987 -1.08307,0.64524 -1.93036,0.64524 -1.03025,0 -1.21148,0.0927 -1.58216,0.80956 -1.28393,2.48283 -3.93033,4.2104 -6.45673,4.21494 -3.0394,0.005 -5.27926,-2.00421 -6.187,-5.55118 l -0.34504,-1.34826 -1.75194,2.48862 c -1.75416,2.49178 -3.20149,3.89474 -4.54485,4.40547 -1.64636,0.62595 -3.75035,0.0961 -4.44478,-1.11928 -0.22311,-0.39049 -0.38369,-2.17158 -0.47087,-5.22278 l -0.13229,-4.63021 -2.58068,3.89453 c -3.01146,4.54461 -3.87566,5.58689 -5.47476,6.6029 -1.74425,1.10822 -3.39243,1.05309 -4.71459,-0.15769 l -0.9883,-0.90505 -0.13229,-4.71735 -0.13229,-4.71734 -1.21689,1.85208 c -0.66929,1.01865 -1.71942,2.64708 -2.33362,3.61874 -1.41418,2.23721 -3.428618,4.25923 -5.009821,5.02865 -1.536282,0.74758 -4.20547,0.90109 -5.757508,0.33114 z m 47.560499,-1.74497 c 1.75884,-0.52696 4.58232,-3.47314 3.61676,-3.77394 -2.36742,-0.73752 -3.12732,-1.18563 -4.76439,-2.80952 -1.39455,-1.38333 -1.83768,-2.01967 -2.08193,-2.98967 -0.34049,-1.35221 -0.49461,-1.45983 -1.10169,-0.76928 -1.11445,1.26768 -1.64702,2.82988 -1.6532,4.84939 -0.005,1.77086 0.087,2.15726 0.7907,3.30729 0.54852,0.89639 1.16374,1.48768 1.97429,1.89748 1.34185,0.67843 1.78479,0.71809 3.21946,0.28825 z m 4.45898,-6.77054 c -0.002,-1.86332 -0.45099,-3.15473 -1.49985,-4.31568 -2.22523,-2.46307 -5.34634,-1.67612 -4.56569,1.15118 0.44557,1.6137 3.97556,4.39503 5.604,4.41546 0.377,0.005 0.46274,-0.22766 0.46154,-1.25096 z m -47.262326,-1.67285 c 0.882218,-0.69395 0.900485,-1.65359 0.04771,-2.50636 -1.155732,-1.15574 -3.981953,-0.83649 -5.525752,0.62417 -0.413173,0.39092 -0.91804,1.03006 -1.121928,1.42031 -0.346551,0.6633 -0.332084,0.71698 0.222057,0.82386 0.326019,0.0629 1.737566,0.13054 3.13677,0.15036 2.206016,0.0312 2.636626,-0.0368 3.241146,-0.51234 z m 26.778566,-8.6459 c 1.26965,-1.99812 1.30295,-2.10243 1.30295,-4.08164 0,-1.65233 -0.10392,-2.17043 -0.55721,-2.77812 -0.67422,-0.90388 -1.21967,-1.049 -1.79193,-0.47674 -0.36181,0.36181 -0.42899,1.13041 -0.42899,4.90801 0,2.46346 0.0387,4.47901 0.0861,4.47901 0.0474,0 0.67245,-0.92273 1.38907,-2.05052 z m -13.90532,-0.13229 c 1.15259,-1.86521 1.18535,-1.97839 1.18535,-4.09503 0,-1.99755 -0.0573,-2.23407 -0.69549,-2.87229 -0.80645,-0.80645 -1.66812,-0.70349 -1.91816,0.22921 -0.23322,0.86994 -0.19792,8.65634 0.0392,8.65634 0.11204,0 0.73712,-0.8632 1.38906,-1.91823 z m -47.178139,18.95092 c -0.103153,-0.10315 -0.18755,-6.76294 -0.18755,-14.79952 0,-12.74434 0.05073,-14.63144 0.396875,-14.76427 0.218281,-0.0838 0.575469,-0.0838 0.79375,0 0.337127,0.12937 0.396875,1.08409 0.396875,6.3417 v 6.1894 h 7.805208 7.805208 v -5.93423 c 0,-5.03879 0.06266,-5.99688 0.41525,-6.34947 0.314261,-0.31426 0.540017,-0.34848 0.928276,-0.14069 0.499425,0.26729 0.511215,0.66182 0.444647,14.8787 -0.06648,14.19907 -0.08257,14.60686 -0.580059,14.70264 -1.109317,0.21357 -1.208114,-0.44715 -1.208114,-8.0794 v -7.22547 h -7.80115 -7.801151 l -0.0702,7.60677 c -0.06857,7.42974 -0.08277,7.60857 -0.610257,7.68408 -0.29703,0.0425 -0.624452,-0.007 -0.727604,-0.11024 z"
       id="path2281" />
  </g>
</svg>
